# xmcd
#
# Track frame offsets:
#	150
#	870
#	24312
#	51967
#	67292
#	89262
#	108690
#	133447
#	151037
#	166250
#	191995
#	192400
#
# Disc length: 2899 seconds
#
# Revision: 1
# Processed by: cddbd v1.5.1PL0 Copyright (c) Steve Scherf et al.
# Submitted via: CDex 1.50Beta5
#
DISCID=a30b510c
DTITLE=福間未紗 - 君の友達
DYEAR=2000
DGENRE=
TTITLE0=スイッチ
TTITLE1=緑の質
TTITLE2=行き先は未定
TTITLE3=風車
TTITLE4=春の風
TTITLE5=イパネマ・ワルツ
TTITLE6=落ち葉
TTITLE7=窓アカリ
TTITLE8=クロアゲハ
TTITLE9=夏の星座
TTITLE10=フレンド・オブ・ユアーズ
TTITLE11=ねじ
EXTD=
EXTT0=
EXTT1=
EXTT2=
EXTT3=
EXTT4=
EXTT5=
EXTT6=
EXTT7=
EXTT8=
EXTT9=
EXTT10=
EXTT11=
PLAYORDER=
